<svg width="79" height="79" viewBox="0 0 79 79" fill="none" xmlns="http://www.w3.org/2000/svg">
<path d="M46.6879 75.05C46.1897 75.05 45.688 75.0063 45.1967 74.9197L11.9909 69.0644C10.7055 68.8385 9.58434 68.1247 8.83527 67.0541C8.0862 65.9842 7.79932 64.687 8.02661 63.4009L16.6939 14.245C17.1083 11.9036 19.1317 10.2059 21.5057 10.2059C21.7857 10.2059 22.0691 10.2301 22.3546 10.28L44.0173 14.1002C44.0637 13.3629 44.2765 12.6256 44.6694 11.9438L46.4371 8.88166C47.358 7.28928 48.8402 6.15355 50.612 5.68097C51.1907 5.52575 51.7914 5.44606 52.3922 5.44606C52.948 5.44606 53.5002 5.51466 54.0373 5.6484C54.532 5.23748 55.1134 4.93883 55.7384 4.77668C56.5395 4.24658 57.4895 3.95 58.4769 3.95C59.3452 3.95 60.2024 4.17936 60.957 4.61384L64.0593 6.40509C65.757 7.3856 66.6571 9.22398 66.5296 11.0596C66.8144 12.1392 66.689 13.3234 66.0938 14.3545L64.1875 17.6564L67.0091 18.1539C68.2966 18.3812 69.4164 19.0956 70.1648 20.1648C70.9139 21.2347 71.2007 22.5326 70.9735 23.818L64.3247 61.5252C63.9255 63.7869 62.6706 65.7576 60.7907 67.0742L51.6196 73.4957C50.1665 74.513 48.4612 75.05 46.6879 75.05Z" fill="#F6F0E0"/>
<path d="M67.4799 23.2003L60.8308 60.9095C60.5983 62.2282 59.8514 63.4005 58.7546 64.1685L49.5846 70.5894C48.4877 71.3574 47.1307 71.6582 45.8121 71.4257L12.6068 65.5707C11.8781 65.4422 11.3915 64.7473 11.52 64.0185L20.1877 14.8614C20.3162 14.1326 21.0112 13.646 21.7399 13.7745L66.3931 21.6481C67.1218 21.7766 67.6084 22.4715 67.4799 23.2003Z" fill="white"/>
<path d="M62.5638 26.7377C62.4426 27.4258 61.8439 27.9101 61.1675 27.9101C61.0858 27.9101 61.0033 27.9032 60.9195 27.8887L24.7486 21.5108C23.9767 21.3743 23.4618 20.6384 23.5976 19.8665C23.7327 19.0952 24.4617 18.5783 25.242 18.7155L61.4128 25.0933C62.1848 25.2298 62.6996 25.9657 62.5638 26.7377ZM60.4275 30.684L24.2559 24.3061C23.4791 24.1676 22.7474 24.6852 22.6116 25.4571C22.4757 26.2291 22.9906 26.965 23.7625 27.1015L59.9341 33.4793C60.018 33.4939 60.1004 33.5008 60.1822 33.5008C60.8585 33.5008 61.4572 33.0164 61.5785 32.3283C61.7143 31.5564 61.1994 30.8205 60.4275 30.684ZM52.6832 36.2719L49.8885 35.7792C49.7472 35.7529 49.6245 35.8464 49.601 35.9808C49.5774 36.116 49.6675 36.2448 49.8026 36.2684L52.5972 36.7611C52.6118 36.7639 52.6263 36.7645 52.6402 36.7645C52.7587 36.7645 52.8633 36.68 52.8848 36.5594C52.9084 36.4243 52.8183 36.2954 52.6832 36.2719ZM31.6337 33.0642C31.6482 33.067 31.6628 33.0677 31.6766 33.0677C31.7951 33.0677 31.8998 32.9832 31.9212 32.8626C31.9448 32.7275 31.8547 32.5986 31.7196 32.575L28.9243 32.0823C28.7829 32.0539 28.6603 32.1489 28.6367 32.284C28.6131 32.4191 28.7032 32.548 28.8383 32.5716L31.6337 33.0642ZM59.6715 37.5039L56.8762 37.0112C56.7355 36.9842 56.6121 37.0778 56.5886 37.2129C56.565 37.348 56.6551 37.4769 56.7902 37.5005L59.5856 37.9931C59.6001 37.9959 59.6147 37.9966 59.6285 37.9966C59.747 37.9966 59.8516 37.9121 59.8731 37.7915C59.8967 37.6564 59.8066 37.5275 59.6715 37.5039ZM45.6955 35.0398L42.9002 34.5471C42.7589 34.5222 42.6362 34.6144 42.6126 34.7488C42.5891 34.8839 42.6792 35.0128 42.8143 35.0364L45.6096 35.529C45.6242 35.5318 45.6387 35.5325 45.6526 35.5325C45.7711 35.5325 45.8757 35.448 45.8972 35.3274C45.9207 35.1923 45.8307 35.0634 45.6955 35.0398ZM21.8507 31.3395L24.646 31.8322C24.6606 31.835 24.6751 31.8357 24.689 31.8357C24.8075 31.8357 24.9121 31.7511 24.9336 31.6305C24.9572 31.4954 24.8671 31.3665 24.732 31.343L21.9366 30.8503C21.7946 30.8226 21.6726 30.9168 21.6491 31.0519C21.6255 31.1871 21.7156 31.3159 21.8507 31.3395ZM38.622 34.297C38.6365 34.2998 38.6511 34.3004 38.6649 34.3004C38.7834 34.3004 38.8881 34.2159 38.9096 34.0953C38.9331 33.9602 38.843 33.8313 38.7079 33.8078L35.9126 33.3144C35.7705 33.2846 35.6486 33.3809 35.625 33.516C35.6015 33.6512 35.6915 33.78 35.8267 33.8036L38.622 34.297ZM37.9235 39.686C37.9471 39.5509 37.857 39.422 37.7219 39.3984L34.9265 38.905C34.7845 38.8766 34.6625 38.9716 34.639 39.1067C34.6154 39.2418 34.7055 39.3707 34.8406 39.3943L37.6359 39.8876C37.6505 39.8904 37.665 39.8911 37.6789 39.8911C37.7974 39.8911 37.902 39.8066 37.9235 39.686ZM30.9352 38.4532C30.9587 38.3181 30.8687 38.1892 30.7335 38.1657L27.9382 37.673C27.7969 37.646 27.6742 37.7395 27.6506 37.8746C27.6271 38.0098 27.7172 38.1387 27.8523 38.1622L30.6476 38.6549C30.6622 38.6577 30.6767 38.6584 30.6906 38.6584C30.8091 38.6584 30.9137 38.5738 30.9352 38.4532ZM23.9476 37.2212C23.9711 37.0861 23.881 36.9572 23.7459 36.9336L20.9506 36.4409C20.8085 36.4146 20.6866 36.5082 20.663 36.6426C20.6395 36.7777 20.7295 36.9066 20.8647 36.9302L23.66 37.4228C23.6745 37.4256 23.6891 37.4263 23.703 37.4263C23.8214 37.4263 23.9261 37.3418 23.9476 37.2212ZM51.6971 41.8625L48.9025 41.3698C48.7611 41.3449 48.6385 41.4371 48.6149 41.5715C48.5913 41.7066 48.6814 41.8355 48.8166 41.8591L51.6112 42.3517C51.6257 42.3545 51.6403 42.3552 51.6541 42.3552C51.7726 42.3552 51.8773 42.2707 51.8988 42.1501C51.9223 42.015 51.8322 41.8861 51.6971 41.8625ZM44.7095 40.6305L41.9142 40.1378C41.7728 40.1073 41.6501 40.2043 41.6266 40.3394C41.603 40.4746 41.6931 40.6034 41.8282 40.627L44.6236 41.1197C44.6381 41.1225 44.6527 41.1232 44.6665 41.1232C44.785 41.1232 44.8896 41.0386 44.9111 40.918C44.9347 40.7829 44.8446 40.654 44.7095 40.6305ZM58.6854 43.0946L55.8901 42.6019C55.7494 42.5756 55.6261 42.6691 55.6025 42.8035C55.579 42.9387 55.6691 43.0675 55.8042 43.0911L58.5995 43.5838C58.6141 43.5866 58.6286 43.5873 58.6425 43.5873C58.761 43.5873 58.8656 43.5027 58.8871 43.3821C58.9106 43.247 58.8206 43.1181 58.6854 43.0946ZM43.7241 46.2204L40.9288 45.7277C40.7867 45.6993 40.6648 45.7943 40.6412 45.9294C40.6177 46.0645 40.7077 46.1934 40.8429 46.217L43.6382 46.7097C43.6527 46.7124 43.6673 46.7131 43.6812 46.7131C43.7996 46.7131 43.9043 46.6286 43.9258 46.508C43.9493 46.3729 43.8592 46.244 43.7241 46.2204ZM36.7365 44.9884L33.9412 44.4957C33.7984 44.4687 33.6772 44.5622 33.6536 44.6973C33.63 44.8325 33.7201 44.9614 33.8552 44.9849L36.6506 45.4776C36.6651 45.4804 36.6797 45.4811 36.6935 45.4811C36.812 45.4811 36.9167 45.3965 36.9381 45.276C36.9617 45.1408 36.8716 45.0119 36.7365 44.9884ZM29.7482 43.7563L26.9528 43.2637C26.8108 43.2373 26.6888 43.3309 26.6653 43.4653C26.6417 43.6004 26.7318 43.7293 26.8669 43.7529L29.6622 44.2455C29.6768 44.2483 29.6914 44.249 29.7052 44.249C29.8237 44.249 29.9283 44.1645 29.9498 44.0439C29.9734 43.9088 29.8833 43.7799 29.7482 43.7563ZM22.7605 42.5243L19.9652 42.0316C19.8225 42.0067 19.7019 42.0988 19.6777 42.2332C19.6541 42.3684 19.7442 42.4973 19.8793 42.5208L22.6746 43.0135C22.6892 43.0163 22.7037 43.017 22.7176 43.017C22.8361 43.017 22.9407 42.9324 22.9622 42.8119C22.9858 42.6767 22.8957 42.5478 22.7605 42.5243ZM21.7745 48.1149L18.9792 47.6223C18.8364 47.5918 18.7152 47.6888 18.6916 47.8239C18.668 47.959 18.7581 48.0879 18.8932 48.1115L21.6886 48.6042C21.7031 48.6069 21.7177 48.6076 21.7315 48.6076C21.85 48.6076 21.9547 48.5231 21.9761 48.4025C21.9997 48.2674 21.9096 48.1385 21.7745 48.1149ZM28.7621 49.347L25.9668 48.8543C25.8247 48.8294 25.7028 48.9215 25.6792 49.056C25.6557 49.1911 25.7457 49.32 25.8809 49.3435L28.6762 49.8362C28.6907 49.839 28.7053 49.8397 28.7192 49.8397C28.8376 49.8397 28.9423 49.7551 28.9638 49.6346C28.9873 49.4994 28.8972 49.3705 28.7621 49.347ZM56.714 54.2759L53.9187 53.7832C53.7773 53.7527 53.6547 53.8497 53.6311 53.9848C53.6075 54.12 53.6976 54.2489 53.8328 54.2724L56.6281 54.7651C56.6426 54.7679 56.6572 54.7686 56.671 54.7686C56.7895 54.7686 56.8942 54.684 56.9157 54.5635C56.9392 54.4283 56.8491 54.2994 56.714 54.2759ZM49.7257 53.0438L46.9311 52.5511C46.789 52.522 46.667 52.6177 46.6435 52.7528C46.6199 52.8879 46.71 53.0168 46.8451 53.0404L49.6398 53.5331C49.6543 53.5358 49.6689 53.5365 49.6827 53.5365C49.8012 53.5365 49.9059 53.452 49.9273 53.3314C49.9509 53.1963 49.8608 53.0674 49.7257 53.0438ZM35.7504 50.5797L32.9551 50.0864C32.8124 50.06 32.6911 50.1536 32.6675 50.288C32.644 50.4231 32.7341 50.552 32.8692 50.5756L35.6645 51.0689C35.6791 51.0717 35.6936 51.0724 35.7075 51.0724C35.826 51.0724 35.9306 50.9879 35.9521 50.8673C35.9756 50.7322 35.8856 50.6033 35.7504 50.5797ZM42.7381 51.8118L39.9427 51.3191C39.8007 51.2914 39.6787 51.3856 39.6552 51.5207C39.6316 51.6559 39.7217 51.7848 39.8568 51.8083L42.6521 52.301C42.6667 52.3038 42.6812 52.3045 42.6951 52.3045C42.8136 52.3045 42.9182 52.2199 42.9397 52.0994C42.9633 51.9642 42.8732 51.8353 42.7381 51.8118ZM34.7644 56.1697L31.9691 55.677C31.827 55.6521 31.705 55.7442 31.6815 55.8787C31.6579 56.0138 31.748 56.1427 31.8831 56.1662L34.6785 56.6589C34.693 56.6617 34.7076 56.6624 34.7214 56.6624C34.8399 56.6624 34.9445 56.5778 34.966 56.4573C34.9896 56.3221 34.8995 56.1933 34.7644 56.1697ZM41.752 57.4017L38.9567 56.9091C38.8146 56.8827 38.6927 56.9763 38.6691 57.1107C38.6455 57.2458 38.7356 57.3747 38.8708 57.3983L41.6661 57.891C41.6806 57.8937 41.6952 57.8944 41.709 57.8944C41.8275 57.8944 41.9322 57.8099 41.9537 57.6893C41.9772 57.5542 41.8871 57.4253 41.752 57.4017ZM27.7761 54.9376L24.9807 54.445C24.8387 54.4145 24.7167 54.5115 24.6932 54.6466C24.6696 54.7817 24.7597 54.9106 24.8948 54.9342L27.6901 55.4269C27.7047 55.4296 27.7192 55.4303 27.7331 55.4303C27.8516 55.4303 27.9562 55.3458 27.9777 55.2252C28.0013 55.0901 27.9112 54.9612 27.7761 54.9376ZM20.7884 53.7056L17.9931 53.2129C17.8504 53.1838 17.7291 53.2794 17.7055 53.4146C17.682 53.5497 17.7721 53.6786 17.9072 53.7021L20.7025 54.1948C20.7171 54.1976 20.7316 54.1983 20.7455 54.1983C20.864 54.1983 20.9686 54.1137 20.9901 53.9932C21.0136 53.858 20.9236 53.7292 20.7884 53.7056ZM19.8031 59.2962L17.0077 58.8036C16.8643 58.7758 16.7444 58.8701 16.7202 59.0052C16.6966 59.1403 16.7867 59.2692 16.9218 59.2928L19.7171 59.7855C19.7317 59.7882 19.7463 59.7889 19.7601 59.7889C19.8786 59.7889 19.9832 59.7044 20.0047 59.5838C20.0283 59.4487 19.9382 59.3198 19.8031 59.2962ZM40.7666 62.9924L37.9713 62.4997C37.8286 62.4748 37.7073 62.5669 37.6837 62.7014C37.6602 62.8365 37.7503 62.9654 37.8854 62.9889L40.6807 63.4816C40.6953 63.4844 40.7098 63.4851 40.7237 63.4851C40.8422 63.4851 40.9468 63.4005 40.9683 63.28C40.9918 63.1448 40.9018 63.016 40.7666 62.9924ZM26.7907 60.5283L23.9954 60.0356C23.8526 60.0065 23.7321 60.1021 23.7078 60.2373C23.6842 60.3724 23.7743 60.5013 23.9094 60.5248L26.7048 61.0175C26.7193 61.0203 26.7339 61.021 26.7477 61.021C26.8662 61.021 26.9709 60.9364 26.9923 60.8159C27.0159 60.6807 26.9258 60.5519 26.7907 60.5283ZM33.779 61.7603L30.9837 61.2677C30.8409 61.2372 30.7204 61.3342 30.6961 61.4693C30.6726 61.6044 30.7626 61.7333 30.8978 61.7569L33.6931 62.2496C33.7076 62.2523 33.7222 62.253 33.7361 62.253C33.8545 62.253 33.9592 62.1685 33.9807 62.0479C34.0042 61.9128 33.9141 61.7839 33.779 61.7603Z" fill="#414785"/>
<path d="M60.0171 62.8896C59.6754 63.3836 59.2541 63.8186 58.7585 64.1657L49.5806 70.5921C49.085 70.9391 48.5321 71.1862 47.9509 71.3384L49.5269 62.4004C49.6554 61.6717 50.3504 61.1851 51.0791 61.3136L60.0171 62.8896Z" fill="#81C6D5"/>
<path d="M48.9712 15.8447C48.7307 15.8447 48.4868 15.7837 48.263 15.6549C47.5846 15.2626 47.3518 14.3951 47.7433 13.716L49.5096 10.656C49.9538 9.8875 50.6696 9.33799 51.5267 9.10863C52.3839 8.87927 53.2792 8.99707 54.0477 9.44124L55.7987 10.4516C56.4771 10.8438 56.7099 11.7113 56.3184 12.3904C55.9269 13.0688 55.0587 13.3002 54.3796 12.9101L52.6278 11.8991C52.4788 11.8125 52.3333 11.8312 52.2613 11.8499C52.1892 11.8693 52.0548 11.9241 51.9681 12.0751L50.2018 15.1351C49.9385 15.5904 49.4618 15.8447 48.9712 15.8447Z" fill="#E78836"/>
<path d="M62.2855 9.47728L59.1867 7.6881C58.5055 7.29589 57.64 7.52872 57.2478 8.20781C56.8563 8.8862 57.0884 9.75445 57.7675 10.1467L60.8664 11.9358C61.0902 12.0647 61.3341 12.1257 61.5746 12.1257C62.0652 12.1257 62.5419 11.8714 62.8052 11.4161C63.1967 10.7377 62.9646 9.86948 62.2855 9.47728Z" fill="#E78836"/>
<path d="M47.0391 34.2865C46.281 34.5369 45.4739 34.0709 45.3115 33.2891C44.7237 30.458 45.1978 27.5095 46.6436 25.0054L56.1177 8.59573C56.3472 8.19819 56.8556 8.06198 57.2531 8.2915L62.7169 11.446C63.1144 11.6755 63.2507 12.1839 63.0211 12.5814L53.547 28.9911C52.1012 31.4952 49.7849 33.38 47.0391 34.2865Z" fill="#F9CC4B"/>
</svg>
