<svg width="28" height="28" viewBox="0 0 28 28" fill="none" xmlns="http://www.w3.org/2000/svg">
<g clip-path="url(#clip0_7_234)">
<path d="M0 22.1667C0.0018525 23.7133 0.617029 25.1959 1.71059 26.2895C2.80415 27.3831 4.28681 27.9982 5.83333 28.0001H22.1667C23.7132 27.9982 25.1959 27.3831 26.2894 26.2895C27.383 25.1959 27.9981 23.7133 28 22.1667V11.6667H0V22.1667ZM19.8333 16.9167C20.1794 16.9167 20.5178 17.0194 20.8056 17.2117C21.0934 17.404 21.3177 17.6773 21.4501 17.9971C21.5826 18.3168 21.6172 18.6687 21.5497 19.0082C21.4822 19.3476 21.3155 19.6594 21.0708 19.9042C20.826 20.1489 20.5142 20.3156 20.1747 20.3831C19.8353 20.4506 19.4834 20.416 19.1636 20.2835C18.8439 20.1511 18.5706 19.9268 18.3783 19.639C18.186 19.3512 18.0833 19.0129 18.0833 18.6667C18.0833 18.2026 18.2677 17.7575 18.5959 17.4293C18.9241 17.1011 19.3692 16.9167 19.8333 16.9167ZM14 16.9167C14.3461 16.9167 14.6845 17.0194 14.9722 17.2117C15.26 17.404 15.4843 17.6773 15.6168 17.9971C15.7492 18.3168 15.7839 18.6687 15.7164 19.0082C15.6488 19.3476 15.4822 19.6594 15.2374 19.9042C14.9927 20.1489 14.6809 20.3156 14.3414 20.3831C14.0019 20.4506 13.6501 20.416 13.3303 20.2835C13.0105 20.1511 12.7372 19.9268 12.5449 19.639C12.3526 19.3512 12.25 19.0129 12.25 18.6667C12.25 18.2026 12.4344 17.7575 12.7626 17.4293C13.0908 17.1011 13.5359 16.9167 14 16.9167ZM8.16667 16.9167C8.51278 16.9167 8.85113 17.0194 9.13891 17.2117C9.4267 17.404 9.651 17.6773 9.78346 17.9971C9.91591 18.3168 9.95057 18.6687 9.88304 19.0082C9.81552 19.3476 9.64885 19.6594 9.4041 19.9042C9.15936 20.1489 8.84754 20.3156 8.50807 20.3831C8.16861 20.4506 7.81674 20.416 7.49697 20.2835C7.1772 20.1511 6.90389 19.9268 6.71159 19.639C6.5193 19.3512 6.41667 19.0129 6.41667 18.6667C6.41667 18.2026 6.60104 17.7575 6.92923 17.4293C7.25742 17.1011 7.70254 16.9167 8.16667 16.9167Z" fill="#00303C"/>
<path d="M22.1667 2.33333H21V1.16667C21 0.857247 20.8771 0.560501 20.6583 0.341709C20.4395 0.122916 20.1428 0 19.8333 0C19.5239 0 19.2272 0.122916 19.0084 0.341709C18.7896 0.560501 18.6667 0.857247 18.6667 1.16667V2.33333H9.33333V1.16667C9.33333 0.857247 9.21042 0.560501 8.99162 0.341709C8.77283 0.122916 8.47609 0 8.16667 0C7.85725 0 7.5605 0.122916 7.34171 0.341709C7.12292 0.560501 7 0.857247 7 1.16667V2.33333H5.83333C4.28681 2.33519 2.80415 2.95036 1.71059 4.04392C0.617029 5.13748 0.0018525 6.62014 0 8.16667L0 9.33333H28V8.16667C27.9981 6.62014 27.383 5.13748 26.2894 4.04392C25.1959 2.95036 23.7132 2.33519 22.1667 2.33333Z" fill="#00303C"/>
</g>
<defs>
<clipPath id="clip0_7_234">
<rect width="28" height="28" fill="white"/>
</clipPath>
</defs>
</svg>
