<svg width="28" height="28" viewBox="0 0 28 28" fill="none" xmlns="http://www.w3.org/2000/svg">
<path d="M22.1666 0H5.83335C2.6133 0.00388281 0.00388281 2.6133 0 5.83335V22.1667C0.00388281 25.3867 2.6133 27.9962 5.83335 28H22.1667C25.3867 27.9962 27.9962 25.3867 28 22.1666V5.83335C27.9962 2.6133 25.3867 0.00388281 22.1666 0ZM23.3334 9.4255L12.537 20.2219C11.626 21.1333 10.1486 21.1335 9.23716 20.2225C9.23694 20.2223 9.23672 20.2221 9.2365 20.2219L4.66665 15.6532C4.21012 15.1967 4.21012 14.4565 4.66665 14.0001C5.12318 13.5436 5.86332 13.5435 6.3198 14.0001L10.8884 18.5687L21.6859 7.77235C22.1425 7.31746 22.8813 7.31877 23.3362 7.77525C23.7911 8.23178 23.7898 8.97061 23.3334 9.4255Z" fill="#3752FD"/>
</svg>
