<svg width="52" height="52" viewBox="0 0 52 52" fill="none" xmlns="http://www.w3.org/2000/svg">
<path d="M0 0H38.5627C45.5647 0 51.2409 5.6762 51.2409 12.6782V38.5627C51.2409 45.5647 45.5647 51.2409 38.5627 51.2409H0V0Z" fill="#3752FD"/>
<path d="M10.0369 10.0369H36.4236C39.3411 10.0369 41.7061 12.402 41.7061 15.3194V36.4236C41.7061 39.3411 39.3411 41.7061 36.4236 41.7061H15.3194C12.402 41.7061 10.0369 39.3411 10.0369 36.4236V10.0369Z" fill="white"/>
<path d="M15.8477 15.8477H31.1946C33.5285 15.8477 35.4206 17.7398 35.4206 20.0737V30.138C35.4206 33.0555 33.0555 35.4206 30.138 35.4206H20.0737C17.7398 35.4206 15.8477 33.5285 15.8477 31.1946V15.8477Z" fill="#3752FD"/>
</svg>
