<svg width="40" height="40" viewBox="0 0 40 40" fill="none" xmlns="http://www.w3.org/2000/svg">
<g clip-path="url(#clip0_0_1)">
<path d="M20 40C23.6435 40 27.0592 39.0252 30.0014 37.3229V36.4509L20 40Z" fill="#962B7C"/>
<path d="M20 20L15.3125 31.7969L20 40C23.7159 40 27.1618 38.688 30.0013 36.4509V20H20Z" fill="#962B7C"/>
<path d="M29.6526 36.7188L30.0014 37.3229C33.0363 35.5668 35.5669 33.0364 37.3229 30.0014V23.4577L29.6526 36.7188Z" fill="#622876"/>
<path d="M37.3229 23.4577V20H20L29.6526 36.7188C33.6247 33.7465 36.4745 28.9935 37.3229 23.4577Z" fill="#622876"/>
<path d="M37.5417 18.5952L35.6836 29.0549L37.323 30.0014C39.0252 27.0592 40 23.6435 40 20L37.5417 18.5952Z" fill="#077CCC"/>
<path d="M37.5417 18.5953L31.7969 15.3125L20 20L35.6835 29.0549C36.8996 26.3362 37.5855 23.2592 37.5855 20C37.5855 19.5277 37.5701 19.0594 37.5417 18.5953Z" fill="#077CCC"/>
<path d="M37.323 9.99863H35.2317L37.5856 20H40.0001C40.0001 16.3565 39.0253 12.9408 37.323 9.99863Z" fill="#09A1E5"/>
<path d="M22.3437 9.99863L20 20H37.5855C37.5855 16.3565 36.7284 12.9408 35.2316 9.99863H22.3437Z" fill="#09A1E5"/>
<path d="M30.0013 2.6771H28.7939L35.6835 10.945L37.3229 9.99855C35.5668 6.96362 33.0364 4.43316 30.0013 2.6771Z" fill="#49B296"/>
<path d="M28.794 2.6771H22.3437L20 20L35.6835 10.9451C34.138 7.48925 31.7354 4.61271 28.794 2.6771Z" fill="#49B296"/>
<path d="M20 0L29.6526 3.28121L30.0014 2.6771C27.0592 0.974809 23.6435 0 20 0Z" fill="#89C247"/>
<path d="M15.3125 8.20314L20 20L29.6525 3.28121C26.8815 1.20765 23.5651 0 20 0L15.3125 8.20314Z" fill="#89C247"/>
<path d="M9.99854 37.3229C12.9407 39.0252 16.3564 40 19.9999 40V20H9.99854V37.3229Z" fill="#CB2E81"/>
<path d="M2.677 30.0014C4.43306 33.0364 6.96352 35.5668 9.99853 37.3229L19.9999 20H2.677V30.0014Z" fill="#FF3187"/>
<path d="M0 20C0 23.6435 0.974809 27.0592 2.6771 30.0014L20 20L8.20314 15.3125L0 20Z" fill="#FF5178"/>
<path d="M2.6771 9.99863C0.974809 12.9408 0 16.3565 0 20H20L17.6563 9.99863H2.6771Z" fill="#FF9259"/>
<path d="M9.99853 2.6771C6.96352 4.43316 4.43306 6.96362 2.677 9.99863L19.9999 20L17.6562 2.6771H9.99853Z" fill="#FFB24A"/>
<path d="M19.9999 0C16.3564 0 12.9407 0.974809 9.99854 2.6771L19.9999 20V0Z" fill="#FFD23B"/>
<circle cx="20" cy="20" r="10.4688" fill="white"/>
</g>
<path d="M24.2189 16.25C23.9598 16.25 23.7501 16.4599 23.7501 16.7188V17.1891C22.8797 16.0311 21.4994 15.3125 20.0001 15.3125C17.796 15.3125 15.9159 16.8119 15.4284 18.9586C15.3712 19.211 15.5296 19.4623 15.7818 19.5196C15.8171 19.5276 15.8519 19.5312 15.8862 19.5312C16.1 19.5312 16.2936 19.3838 16.343 19.1664C16.7326 17.4493 18.2368 16.25 20.0001 16.25C21.3523 16.25 22.579 16.9838 23.2412 18.125H22.3439C22.0848 18.125 21.8751 18.3349 21.8751 18.5938C21.8751 18.8526 22.0848 19.0625 22.3439 19.0625H24.2189C24.4779 19.0625 24.6876 18.8526 24.6876 18.5938V16.7188C24.6876 16.4599 24.4779 16.25 24.2189 16.25Z" fill="#3752FD"/>
<path d="M15.7813 23.75C16.0403 23.75 16.25 23.5401 16.25 23.2813V22.8007C17.1251 23.9773 18.4945 24.6875 20 24.6875C22.2041 24.6875 24.0842 23.1881 24.5717 21.0414C24.6289 20.789 24.4705 20.5377 24.2183 20.4804C23.9633 20.4216 23.7143 20.5811 23.657 20.8336C23.2675 22.5507 21.7633 23.75 20 23.75C18.6474 23.75 17.4322 23.034 16.7618 21.875H17.6563C17.9153 21.875 18.125 21.6651 18.125 21.4062C18.125 21.1474 17.9153 20.9375 17.6563 20.9375H15.7813C15.5222 20.9375 15.3125 21.1474 15.3125 21.4062V23.2813C15.3125 23.5401 15.5222 23.75 15.7813 23.75Z" fill="#3752FD"/>
<defs>
<clipPath id="clip0_0_1">
<rect width="40" height="40" fill="white"/>
</clipPath>
</defs>
</svg>
